<svg xmlns="http://www.w3.org/2000/svg" width="560" height="1200" viewBox="0 0 560 1200">
<defs>
<linearGradient id="rib" x2="0" y2="1">
  <stop stop-color="#f8fafc"/><stop offset=".12" stop-color="#eef2f7"/><stop offset=".32" stop-color="#ffffff"/><stop offset=".75" stop-color="#f4f7fb"/><stop offset="1" stop-color="#eaeff5"/>
</linearGradient>
<linearGradient id="pane" x2="0" y2="1"><stop stop-color="#ffffff" stop-opacity=".34"/><stop offset=".55" stop-color="#f4f8fc" stop-opacity=".14"/><stop offset="1" stop-color="#ffffff" stop-opacity=".04"/></linearGradient>
<radialGradient id="daylight" cx="50%" cy="50%" r="50%"><stop stop-color="#ffffff" stop-opacity=".95"/><stop offset=".42" stop-color="#fffbf3" stop-opacity=".5"/><stop offset="1" stop-color="#fffbf3" stop-opacity="0"/></radialGradient>
<linearGradient id="glint" x2="1"><stop stop-color="#fff" stop-opacity="0"/><stop offset=".5" stop-color="#fff" stop-opacity=".95"/><stop offset="1" stop-color="#fff" stop-opacity="0"/></linearGradient>
<linearGradient id="shaft" x1="0" y1="0" x2="1" y2="1"><stop stop-color="#ffffff" stop-opacity=".95"/><stop offset=".5" stop-color="#fffaf0" stop-opacity=".35"/><stop offset="1" stop-color="#ffffff" stop-opacity="0"/></linearGradient>
<linearGradient id="fringe" x2="0" y2="1"><stop stop-color="#ffe2b8" stop-opacity="0"/><stop offset=".22" stop-color="#ffe2b8" stop-opacity=".7"/><stop offset=".46" stop-color="#f6d0e2" stop-opacity=".6"/><stop offset=".7" stop-color="#cfe6ff" stop-opacity=".7"/><stop offset="1" stop-color="#cfe6ff" stop-opacity="0"/></linearGradient>
<filter id="sb2" filterUnits="userSpaceOnUse" x="-300" y="-300" width="1160" height="1800"><feGaussianBlur stdDeviation="1.5"/></filter>
<filter id="sb4" filterUnits="userSpaceOnUse" x="-300" y="-300" width="1160" height="1800"><feGaussianBlur stdDeviation="3"/></filter>
<filter id="sb14" filterUnits="userSpaceOnUse" x="-300" y="-300" width="1160" height="1800"><feGaussianBlur stdDeviation="14"/></filter>
</defs>

<path d="M490 1220 L490 360 C490 115.2 370 -50 90 -110 L40 -110 C314.4 -50 432 131.2 432 410 L432 1220 Z" fill="url(#pane)"/><rect x="468" y="40" width="12" height="900" fill="url(#glint)" opacity=".42" filter="url(#sb4)"/><path d="M490 1220 L490 360 C490 115.2 370 -50 90 -110" fill="none" stroke="#5a7090" stroke-width="7.4" opacity="0.08" filter="url(#sb4)" transform="translate(3 4)"/><path d="M490 1220 L490 360 C490 115.2 370 -50 90 -110" fill="none" stroke="#8ea2be" stroke-width="1" opacity="0.52" transform="translate(2.7 0)"/><path d="M490 1220 L490 360 C490 115.2 370 -50 90 -110" fill="none" stroke="url(#rib)" stroke-width="4.4" opacity="0.95"/><path d="M490 1220 L490 360 C490 115.2 370 -50 90 -110" fill="none" stroke="#ffffff" stroke-width="1.76" opacity="1" transform="translate(-1.23 0)"/><path d="M432 1220 L432 410 C432 131.2 314.4 -50 40 -110" fill="none" stroke="#5a7090" stroke-width="6" opacity="0.06" filter="url(#sb4)" transform="translate(3 4)"/><path d="M432 1220 L432 410 C432 131.2 314.4 -50 40 -110" fill="none" stroke="#8ea2be" stroke-width="1" opacity="0.42" transform="translate(2 0)"/><path d="M432 1220 L432 410 C432 131.2 314.4 -50 40 -110" fill="none" stroke="url(#rib)" stroke-width="3" opacity="0.76"/><path d="M432 1220 L432 410 C432 131.2 314.4 -50 40 -110" fill="none" stroke="#ffffff" stroke-width="1.2" opacity="0.8" transform="translate(-0.84 0)"/><path d="M364 1220 L364 470 C364 150.4 254.8 -50 0 -110" fill="none" stroke="#5a7090" stroke-width="5" opacity="0.04" filter="url(#sb4)" transform="translate(3 4)"/><path d="M364 1220 L364 470 C364 150.4 254.8 -50 0 -110" fill="none" stroke="#8ea2be" stroke-width="1" opacity="0.29" transform="translate(1.5 0)"/><path d="M364 1220 L364 470 C364 150.4 254.8 -50 0 -110" fill="none" stroke="url(#rib)" stroke-width="2" opacity="0.52"/><path d="M364 1220 L364 470 C364 150.4 254.8 -50 0 -110" fill="none" stroke="#ffffff" stroke-width="0.8" opacity="0.55" transform="translate(-0.56 0)"/>
</svg>